<svg width="360" height="380" viewBox="0 0 360 380" fill="none" xmlns="http://www.w3.org/2000/svg">
<g clip-path="url(#clip0)">
<rect width="360" height="380" fill="white"/>
<path d="M81.9837 -225.25H14.7332C5.44795 -225.25 -2.07983 -217.722 -2.07983 -208.437V-73.9375C-2.07983 -64.6523 5.44795 -57.1245 14.7332 -57.1245H48.3577C76.2134 -57.1245 98.7952 -34.5427 98.7952 -6.68699V60.5636C98.7952 69.8488 106.323 77.3766 115.608 77.3766H250.108C259.393 77.3766 266.921 69.8488 266.921 60.5636V-40.3114C266.809 -142.405 184.076 -225.138 81.9837 -225.25Z" fill="#90A4AE"/>
<path d="M196.694 133.054C190.822 125.412 179.866 123.978 172.223 129.852C171.02 130.776 169.945 131.853 169.022 133.054C157.287 149.867 98.8125 236.753 98.8125 277.103C98.8125 323.529 136.448 361.165 182.874 361.165C229.301 361.165 266.936 323.529 266.936 277.103C266.903 236.753 208.396 150.034 196.694 133.054Z" fill="#2196F3"/>
<path d="M-119.766 -292.501H-52.5157C-6.0896 -292.501 31.5462 -254.865 31.5462 -208.439V-73.9375C31.5462 -27.5114 -6.0896 10.1245 -52.5157 10.1245H-119.766C-166.192 10.1245 -203.828 -27.5114 -203.828 -73.9375V-208.437C-203.83 -254.865 -166.194 -292.501 -119.766 -292.501Z" fill="#607D8B"/>
</g>
<defs>
<clipPath id="clip0">
<rect width="360" height="380" fill="white"/>
</clipPath>
</defs>
</svg>
