<svg width="1090" height="710" viewBox="0 0 1090 710" fill="none" xmlns="http://www.w3.org/2000/svg">
<rect width="1090" height="710" fill="#E5E5E5"/>
<g clip-path="url(#clip0)">
<rect width="1090" height="710" fill="white"/>
<path d="M268.568 221V240.584H254.744L223.928 437H186.488L155.384 240.872L124.28 437H86.84L56.024 240.584H42.2V221H89.72V240.584H78.2L105.56 417.416L135.8 221H174.968L205.208 417.416L232.568 240.584H221.048V221H268.568ZM389.902 417.416V437H289.678C279.886 437 273.262 435.08 269.806 431.24C266.734 427.784 265.198 421.256 265.198 411.656V401C265.198 394.088 266.062 389.384 267.79 386.888C270.286 383.24 275.95 378.728 284.782 373.352L348.142 333.896V312.584H291.694V329.288H273.262V293H345.262C355.054 293 361.87 295.112 365.71 299.336C369.742 303.56 371.758 309.704 371.758 317.768V417.416H389.902ZM348.142 356.936L288.238 394.376V417.416H348.142V356.936ZM456.765 240.584V293H480.093V313.736H456.765V417.416H484.125V437H459.933C451.293 437 444.861 434.792 440.637 430.376C436.413 425.768 434.301 417.992 434.301 407.048V313.736H412.989V293H434.301V240.584H456.765ZM507.275 321.224C507.275 302.216 517.163 292.712 536.939 292.712H585.611C595.019 292.712 601.835 294.536 606.059 298.184C610.283 301.832 612.395 308.552 612.395 318.344V345.128L530.315 396.968V417.416H589.643V400.712H612.395V415.976C612.395 421.736 610.571 426.728 606.923 430.952C603.467 434.984 597.611 437 589.355 437H530.315C522.059 437 516.107 434.984 512.459 430.952C509.003 426.728 507.275 421.736 507.275 415.976V321.224ZM530.315 373.64L589.355 336.488V312.584H530.315V373.64ZM725.534 293C740.51 293 747.998 300.392 747.998 315.176V340.808H724.67V312.872L679.742 341.384V417.416H693.854V437H638.27V417.416H656.414V312.296H638.27V292.712H679.742V318.056L715.166 295.88C718.238 293.96 721.694 293 725.534 293Z" fill="black"/>
<path d="M828.6 386.4C836.92 386.4 841.08 390.507 841.08 398.72V457.12H851.32V468H820.44V457.12H828.12V397.6L798.84 415.84V457.12H806.68V468H778.04V457.12H785.72L785.88 456.48V397.44L756.44 415.84V457.12H764.28V468H733.4V457.12H743.48V398.72H733.4V388H756.44V403.2L780.6 388C782.307 386.933 784.227 386.4 786.36 386.4C794.68 386.4 798.84 390.507 798.84 398.72V403.04L822.84 388C824.547 386.933 826.467 386.4 828.6 386.4ZM865.781 403.68C865.781 393.12 871.275 387.84 882.261 387.84H909.301C914.528 387.84 918.315 388.853 920.661 390.88C923.008 392.907 924.181 396.64 924.181 402.08V416.96L878.581 445.76V457.12H911.541V447.84H924.181V456.32C924.181 459.52 923.168 462.293 921.141 464.64C919.221 466.88 915.968 468 911.381 468H878.581C873.995 468 870.688 466.88 868.661 464.64C866.741 462.293 865.781 459.52 865.781 456.32V403.68ZM878.581 432.8L911.381 412.16V398.88H878.581V432.8Z" fill="black"/>
<path d="M1067.54 93.722C1066.61 91.4697 1064.42 90.0006 1061.98 90C828.297 90 803.002 186.87 803.002 228.523C803.002 282.558 844.149 318.864 905.388 318.864C982.732 318.864 998.933 245.266 1007.63 205.721C1016.08 165.467 1036.51 128.71 1066.23 100.275C1067.95 98.5559 1068.47 95.971 1067.54 93.722Z" fill="#4CAF50"/>
<path d="M809.025 355C805.699 355 803.002 352.303 803.002 348.977C803.002 313.166 865.096 198.264 962.99 150.829C965.984 149.379 969.586 150.63 971.036 153.624C972.486 156.617 971.236 160.22 968.242 161.67C869.385 209.575 815.048 320.827 815.048 348.978C815.048 352.304 812.351 355 809.025 355Z" fill="#388E3C"/>
<rect x="680" y="251" width="69" height="98" fill="white"/>
<path d="M682.123 304.25H703.998C705.206 304.25 706.185 305.229 706.185 306.438V323.937C706.185 325.146 705.206 326.125 703.998 326.125H682.123C680.915 326.125 679.935 325.146 679.935 323.937V306.438C679.935 305.229 680.915 304.25 682.123 304.25Z" fill="#90A4AE"/>
<path d="M738.998 304.25H730.248C729.04 304.25 728.06 305.229 728.06 306.438V323.938C728.06 325.146 729.04 326.125 730.248 326.125H734.623C738.247 326.125 741.185 329.063 741.185 332.688V341.438C741.185 342.646 742.165 343.625 743.373 343.625H760.873C762.081 343.625 763.06 342.646 763.06 341.438V328.313C763.046 315.029 752.281 304.265 738.998 304.25Z" fill="#90A4AE"/>
<path d="M753.925 353.32C753.161 352.326 751.736 352.139 750.741 352.904C750.585 353.024 750.445 353.164 750.325 353.32C748.798 355.508 741.19 366.813 741.19 372.063C741.19 378.103 746.087 383 752.127 383C758.168 383 763.065 378.103 763.065 372.063C763.06 366.813 755.448 355.529 753.925 353.32Z" fill="#2196F3"/>
<path d="M717.123 299.875C715.915 299.875 714.935 298.896 714.935 297.687V286.864C714.935 285.656 715.915 284.676 717.123 284.676C718.331 284.676 719.31 285.656 719.31 286.864V297.687C719.31 298.896 718.331 299.875 717.123 299.875Z" fill="#455A64"/>
<path d="M712.748 295.5H721.498C727.539 295.5 732.435 300.397 732.435 306.437V323.937C732.435 329.978 727.539 334.875 721.498 334.875H712.748C706.707 334.875 701.81 329.978 701.81 323.937V306.438C701.81 300.397 706.707 295.5 712.748 295.5Z" fill="#607D8B"/>
<path d="M730.248 278C725.824 278.294 721.433 278.963 717.123 279.999C712.812 278.963 708.422 278.294 703.998 278C700.373 278 697.435 280.938 697.435 284.562C697.435 288.187 700.373 291.125 703.998 291.125C708.422 290.831 712.812 290.162 717.123 289.126C721.433 290.162 725.824 290.831 730.248 291.125C733.872 291.125 736.81 288.187 736.81 284.562C736.81 280.938 733.872 278 730.248 278Z" fill="#607D8B"/>
</g>
<defs>
<clipPath id="clip0">
<rect width="1090" height="710" fill="white"/>
</clipPath>
</defs>
</svg>
